<svg xmlns:xlink="http://www.w3.org/1999/xlink" xmlns="http://www.w3.org/2000/svg" data-supported-dps="24x24" fill="currentColor" class="mercado-match" focusable="false" viewBox="1 2 22 20">
  <path d="M2 2.71l3.88 3.87A12 12 0 001 12a11.74 11.74 0 0011 7 12.4 12.4 0 005.18-1.12L21.29 22l.71-.71L2.71 2zm6.15 6.14l1.42 1.43A2.93 2.93 0 009 12a3 3 0 003 3 2.93 2.93 0 001.72-.57l1.43 1.42A4.93 4.93 0 0112 17a5 5 0 01-5-5 4.93 4.93 0 011.15-3.15zM23 12a12.1 12.1 0 01-4 4.87l-2.58-2.57A5 5 0 009.7 7.58L7.82 5.7A12.64 12.64 0 0112 5a11.76 11.76 0 0111 7zm-8 0a3.25 3.25 0 01-.11.77l-3.66-3.66A3.25 3.25 0 0112 9a3 3 0 013 3z" fill-opacity="0.6" fill="#000000"/>
</svg>