<svg xmlns="http://www.w3.org/2000/svg" width="128" height="128" viewBox="0 0 128 128" id="main-coworkers-5-small" data-supported-dps="128x128">
  <path d="M64 32a64 64 0 0164 64H0a64 64 0 0164-64z" fill="#ffefea"/>
  <path fill="#e0a191" fill-rule="evenodd" d="M114 86H10v32h104V86z"/>
  <path fill="#ac7b76" fill-rule="evenodd" d="M113 96H10v17h103V96z"/>
  <path fill="#104952" d="M66 96.07h9V113h-9V96.07z"/>
  <path fill="#fcd1c6" d="M64 96h3v17h-3V96z"/>
  <path fill="#e7a33e" d="M62 96h2v17h-2V96z"/>
  <path fill="#8f5849" d="M80 113h-9v-12.04h9V113z"/>
  <path fill="#684337" d="M80 110.96h-9v-6.97h9v6.97z"/>
  <path fill="#8f5849" d="M73 107h5v-2h-5"/>
  <path fill="#0d2135" d="M29 109h9v4h-9z"/>
  <path fill="#c5cccc" d="M35.09 97h-3.12l-1.56 6 1.56 6h3.12l1.55-6-1.55-6z"/>
  <path fill="#697171" d="M31 111h5v2h-5z"/>
  <path d="M89.59 104.68C89.79 99 88 97 88 97M89.27 100c-.23-.86.7-2 .7-2" fill="none" stroke="#61382d" stroke-linecap="round" stroke-miterlimit="10"/>
  <path d="M94.07 108.47a4.48 4.48 0 11-9 0c0-3.31 3.34-3.55 3.34-7.25h2.28c.04 3.7 3.38 3.94 3.38 7.25z" fill="#f0c59f"/>
  <path fill="#fcd1c6" d="M52 99h-8l-4 7 4 7h8l4-7-4-7z"/>
  <path d="M22 0h84a5 5 0 015 5v58H17V5a5 5 0 015-5z" fill="#c0d1e2"/>
  <path d="M105.79.79H22.21A4.2 4.2 0 0018 5v47h92V5a4.19 4.19 0 00-4.21-4.21z" fill="#f9fafb"/>
  <path fill="#d6cec2" d="M71.04 6h25v24h-25z"/>
  <path d="M82.87 8.12A5.59 5.59 0 0079 9.76a4.77 4.77 0 00-1.36 2.91 4.85 4.85 0 01-.38 1.63c-.17.4-.42.85 0 1.18s.54.45.52.91c0 1.61.12 1.66 1.91 2.2S80 21 80 21h7s-1.39-2.28-.12-4.14A13.55 13.55 0 0088 15a4.77 4.77 0 00.4-2 5.28 5.28 0 00-5.53-4.88z" fill="#df9885"/>
  <path d="M86.93 17.05s-2.17 0-2.69-.94.49-2.18-.32-2.91a1.29 1.29 0 00-2.11.78c0 .27-.08.61-.41.67a.42.42 0 01-.5-.5 5.54 5.54 0 01.57-1.31 1.15 1.15 0 000-1.15c-.27-.55.72-1.22.5-1.58-.31-.52-.73-.36-1.7 0a1.68 1.68 0 01-1.61-.19 4.6 4.6 0 01.89-.9 6.08 6.08 0 016.34-.31 4.88 4.88 0 012.64 4.14 5.6 5.6 0 01-.44 2.4c-.17.39-1.16 1.8-1.16 1.8z" fill="#dce6f1"/>
  <path d="M94 25.11a4.09 4.09 0 00-1.24-2.91 4.33 4.33 0 00-3-1.2H77.24a4.33 4.33 0 00-3 1.2A4.09 4.09 0 0073 25.11V30h21v-4.89z" fill="#b2a797" fill-rule="evenodd"/>
  <path fill="#eef3f8" d="M80 21h7v9h-7z"/>
  <path d="M37.2 14.23a.49.49 0 00-.34.15c-.94.95-2.06 1.91-3.07 2.89L32.13 16a.5.5 0 10-.61.79l2 1.49a.51.51 0 00.66 0c1-1.05 2.3-2.1 3.39-3.19a.51.51 0 000-.71.54.54 0 00-.38-.15zM37.2 20.25a.49.49 0 00-.34.15c-.94 1-2.06 1.91-3.07 2.89l-1.66-1.24a.5.5 0 10-.61.79l2 1.49a.51.51 0 00.66 0c1-1.05 2.3-2.11 3.39-3.19a.51.51 0 000-.71.5.5 0 00-.38-.15zM37.2 26.27a.49.49 0 00-.34.15c-.94.95-2.06 1.91-3.07 2.89l-1.66-1.24a.5.5 0 00-.61.79l2 1.49a.51.51 0 00.66 0c1-1.05 2.3-2.11 3.39-3.19a.51.51 0 000-.71.5.5 0 00-.38-.15z" fill="#f8c77e"/>
  <rect x="41.04" y="15" width="26" height="3" rx="1.5" fill="#dce6f1"/>
  <rect x="31.04" y="6" width="36" height="3" rx="1.5" fill="#dce6f1"/>
  <rect x="41.04" y="21" width="25.5" height="3" rx="1.5" fill="#dce6f1"/>
  <rect x="41.04" y="27" width="25.5" height="3" rx="1.5" fill="#dce6f1"/>
  <path d="M80.89 46.25l-1.64-.73c-2.09-1.56-3-1.14-3.65-1.41-.42-.17-1.11-.47-1.56-.67a.51.51 0 00-.43.92l1.29.64c.7.51-.05 1-.59 1.13a6 6 0 01-2.76-.26s-1-.35-1 .25c-.34-.08-.64-.34-.89 0s.07.57.33.71a.48.48 0 00.25.64 15.51 15.51 0 008 1 1.77 1.77 0 011.17.23l3.7 2.15 1.66-3.25zM100.83 24.06v-.35A6.66 6.66 0 11113 28.08v.06a10.76 10.76 0 00-1.63 5.41 1.62 1.62 0 001 1.54 8.32 8.32 0 011.21.72l-9.43 14.77-.77-15.35s1.39-.84 1.41-1.2a2.36 2.36 0 00-1.61-2.42c-2.18-.76-2.31-.84-2.26-3 .08-1.21-.87-1-.87-1.75s.7-1.39.84-2.84" fill="#684337"/>
  <path d="M101.37 113.35h5.4s-.6.31.5 6A15.8 15.8 0 01107 126h-2.94s.53-1.86.71-2.74c.07-.37-.23-1.18-1.08.08a11 11 0 01-2.32 2.66H95a7.85 7.85 0 010-1.11c.07-.66 1.1-.94 1.25-1 2-.87 2.67-1.08 4.33-4.74a9.09 9.09 0 00.74-5.8zM113.48 115.35h5.4s-.6.31.49 6a15.7 15.7 0 01-.26 6.62h-2.94s.53-1.86.71-2.74c.07-.37-.23-1.18-1.08.08a11 11 0 01-2.32 2.66h-6.37a7.85 7.85 0 010-1.11c.07-.66 1.1-.94 1.25-1 2-.87 2.66-1.08 4.33-4.74a9.09 9.09 0 00.74-5.8z" fill="#e06f55" fill-rule="evenodd"/>
  <path d="M111.55 70l-4.45 48h-5.36a1.47 1.47 0 01-1.46-1.41C99.87 109 97.21 70 97.21 70h14.34z" fill="#523a51" fill-rule="evenodd"/>
  <path d="M104.05 70l3.32 12.5s4.06 30.92 4.45 36.22a1.38 1.38 0 001.37 1.28h5.91l4.49-49.92-19.54-.08z" fill="#523a51" fill-rule="evenodd"/>
  <path d="M106.17 49l-2.42-14a11.18 11.18 0 00-2 .66 15.86 15.86 0 00-6.66 7.13c-1 2-2.45 4.51-3.15 5.76a.88.88 0 01-1.18.33l-7.39-4.17-4 6.63 10.2 5.57c1.19.65 3.39 1.77 4.67.87a12.28 12.28 0 002.72-3.07c.68-1 1.24-1.63 1.84-2.69a15.34 15.34 0 011.32 5.51c0 3.91-2.1 5-2.7 8.29a34.3 34.3 0 00-.19 5.2h9.31v-.51z" fill="#c48686" fill-rule="evenodd"/>
  <path d="M103.74 35L107 49h-2s-3.54-5-4-9a6.55 6.55 0 01.44-3.37 2.57 2.57 0 011.67-1.45l.66-.2z" fill="#d09793" fill-rule="evenodd"/>
  <path d="M112 35l-8 14v22h18.59s.62-5.84-2.61-9.71c-2.32-2.8-2.26-3.1-2.43-4.54-.25-2.13 1.54-4.72 1.54-4.72S121 53.82 121 55v13h7V56.14a7 7 0 00-.46-2.53 105.19 105.19 0 00-5.72-13.09 10.7 10.7 0 00-5.91-4.52 26.51 26.51 0 00-3.91-1z" fill="#d09793"/>
  <path d="M106.5 54a1.5 1.5 0 11-1.5 1.5 1.5 1.5 0 011.5-1.5zM106.5 60a1.5 1.5 0 11-1.5 1.5 1.5 1.5 0 011.5-1.5zM104 47l8-12s2.33-.13 1.42 3.67c-.78 3.3-2.55 5.25-5.32 7.71C105.51 48.67 104 49 104 49z" fill="#e5bdbd" fill-rule="evenodd"/>
  <path fill="#fce2ba" fill-rule="evenodd" d="M128 71h-18v12h18V71z"/>
  <path d="M114.28 23.27c-.34-1 .36-1.42-.57-2.72s-1.45-.77-3.17-2.47c-1.53-1.51-3.33-.3-5.11-.16h-1.81c-1.1.13-2.72 1.43-2.17 2.71.2.48 1.87.4 1.87.4a2.8 2.8 0 00.92 1.51 2.12 2.12 0 001.16.41.84.84 0 01.7.41c.12.3-.13.63.05.92.36.55.81.35.85.77 0 .74.71 1.5 1 .36.45-1.29 2.35-1.07 3-.06a2.2 2.2 0 010 1.91c-.2.58-.45 1.07.22 1.44.34.18 0 .82 0 1.39a2.37 2.37 0 00.44 1.15s1.91-3.15 2.49-4.28c.91-1.73.67-2.11.13-3.69z" fill="#d39b71" fill-rule="evenodd"/>
  <path d="M109.78 28.48a1.25 1.25 0 11-1.25-1.25" fill="none" stroke="#f8c77e" stroke-linecap="round" stroke-linejoin="round" stroke-width=".5"/>
  <path d="M121.24 68l-.32.51c-.27.41-.65.48-1 1S119 71 119 71h1l.48.7-1.1 2.61a.41.41 0 00.21.53.42.42 0 00.48-.11l1.14-1.5.33.17a.79.79 0 00.8-.05l.73-.52a1 1 0 001.07-.24l.73-.72a1.83 1.83 0 00.52-1.58L125 68z" fill="#684337"/>
  <path fill="#fce2ba" d="M32.98 46.01H28.6L31.22 39h4.38l-2.62 7.01z"/>
  <path fill="#7b9370" d="M26.07 46.52l-5.19 4.14 2.6 6.93 6.23-5.8-3.64-5.27z"/>
  <path fill="#d7ebce" d="M26.07 46.52l3.19 4.6-1.83 1.09-3.11-4.3 1.75-1.39z"/>
  <path d="M8.88 122v-1.59h7a2.66 2.66 0 00.11 1.59v1.62H9.76L8.88 122z" fill="#c0d1e2"/>
  <path d="M4 69c.53 6 3 18 4 25.78V121h10l3-30 2-22z" fill="#104952"/>
  <path d="M43.39 43.15L35 45l-.63.63.84.27 8.37-1.9a.46.46 0 00.35-.54.46.46 0 00-.54-.31z" fill="#0d2034"/>
  <path d="M32.7 49.13l3.82-2.08a1.37 1.37 0 00.68-.86l.66-2.29a.65.65 0 01.35-.41l.63-.31a.56.56 0 01.69.17l.43.56-.5.11-.08.92 2-.42a8.5 8.5 0 01.16 1.21 1 1 0 010 1.26c.27.33-.12 1.22-.12 1.22.31.76-.91 1.39-.91 1.39l-1.87.6a2.08 2.08 0 00-.85.52l-3.64 3.72-1.45-5.31zM8 30.08c.46.46 1 .89 1.44 1.34 2.34 2.09 2.93 2.29 1 6.54l8.86-1.44a12.83 12.83 0 01-.2-5.2c0-.13.39-.29.5-.36.53-.36 1.32-.8 1.55-1.46a3.63 3.63 0 00-.28-2.1 1.57 1.57 0 01-.08-.74c.11-.59.66-.78.52-1.33s-1.07-1.24-1.62-2.66a8.15 8.15 0 00-1.36-2.51A7.19 7.19 0 005.88 26.6 7.68 7.68 0 008 30.08z" fill="#d69264"/>
  <path d="M11.23 33.17L19 34.53c.35 1.65 2.62 11.37 2.62 11.37C14.75 38.46 10 36.12 10 36.12a5.1 5.1 0 001.23-2.95z" fill="#d7ebce"/>
  <path d="M10.82 34.7c6.46.42 8.74 5.36 10.8 11.2l2.86 8 8.63-5 4.75 6.07-12.24 8.08L25.5 66c.18 2.45-2.34 4.62-5.5 5H4a69.23 69.23 0 01-.26-17.58C4.8 43 9.64 37 10.82 34.7z" fill="#7b9370"/>
  <path fill="#d7ebce" d="M33.11 48.86l1.8-.96 3.48 4.25-1.72 1.27-3.56-4.56z"/>
  <path d="M24.69 128H9.4a1 1 0 01-1-1.14l.5-4.83c3.86-.06 3.84 2.55 7 0 2.81 6 7.11 1.32 8.76 6zM18.22 18.87c-.07-1-.68-1.5-1.9-1.72a15.82 15.82 0 00-5.85.55 6.66 6.66 0 00-5.29 6.89A6.9 6.9 0 007 29.42 33.48 33.48 0 0010.09 32s.91-1.25 1.31-2a3.78 3.78 0 00.36-2.43c0-.29-.27-1.09-.29-1.19A1.75 1.75 0 0114.62 25h.45L14 20.93c3.08 0 4.29-1.18 4.22-2.06z" fill="#0d2034"/>
  <path d="M34.29 43.67c.07-.62-.47-.72-1.36-.83a.61.61 0 00-.27 1.16.61.61 0 00-.38 1.12.62.62 0 00-.28.88h-1s-.7-1.42-.81-1.77a2.67 2.67 0 01.06-1.4c.05-.24.21-.29.4-.41a.45.45 0 00-.47-.77c-.29.19-.77.33-.89.69-.18.57-.43 1.11-.63 1.67a1.31 1.31 0 01-.29.56c-.75.66-1.52 1.31-2.28 2l2.12 3.08a3.64 3.64 0 011.88-1.73c.73-.35 3.51-.25 2.78-1.58a.61.61 0 00.42-1.06.61.61 0 00.43-1.08.5.5 0 00.57-.53z" fill="#d69264"/>
</svg>
