<svg xmlns:xlink="http://www.w3.org/1999/xlink" xmlns="http://www.w3.org/2000/svg" class="global-nav__icons" viewBox="0 0 24 24">

  <symbol id="global-nav-icon--classic__home" height="24" width="24">
    <path d="M22 9.45l-9.15-6.19a1.5 1.5 0 00-1.69 0L2 9.45 3.06 11l.94-.63V20a1 1 0 001 1h6v-5h2v5h6a1 1 0 001-1v-9.63l.94.63zM18 19h-3v-4a1 1 0 00-1-1h-4a1 1 0 00-1 1v4H6V8.89l6-4 6 4V19z"/>
  </symbol>

  <symbol id="global-nav-icon--classic__home--active" height="24" width="24">
    <path d="M22 8.45l-9.15-6.19a1.5 1.5 0 00-1.69 0L2 8.45 3.06 10 4 9.37V19a1 1 0 001 1h5v-5h4v5h5a1 1 0 001-1V9.37l.94.63z"/>
  </symbol>

  <symbol id="global-nav-icon--mercado__home" height="24" width="24">
    <path d="m23 9v2h-2v7c0 1.7-1.3 3-3 3h-4v-6h-4v6h-4c-1.7 0-3-1.3-3-3v-7h-2v-2l11-7z"/>
  </symbol>

  <symbol id="global-nav-icon--mercado__home--active" height="24" width="24">
    <path d="m23 9v2h-2v7c0 1.7-1.3 3-3 3h-4v-6h-4v6h-4c-1.7 0-3-1.3-3-3v-7h-2v-2l11-7z"/>
    <path d="m20 2h-3v3.2l3 1.9z"/>
  </symbol>


  <symbol id="global-nav-icon--classic__my-network" height="24" width="24">
    <path d="M20.74 14.2L19 13.54v-.68l.25-.41A5 5 0 0020 9.82V9a3 3 0 00-6 0v.82a5 5 0 00.75 2.63l.25.41v.68l-1 .37a4 4 0 00-.58-.28l-2.45-1v-1.8A8 8 0 0012 7V6a4 4 0 00-8 0v1a8 8 0 001 3.86v1.84l-2.45 1A4 4 0 000 17.35V20a1 1 0 001 1h21a1 1 0 001-1v-2.53a3.5 3.5 0 00-2.26-3.27zM16 8.75a1 1 0 012 0v1.44a3 3 0 01-.38 1.46l-.33.6a.25.25 0 01-.22.13h-.14a.25.25 0 01-.22-.13l-.33-.6a3 3 0 01-.38-1.46V8.75zM6 5.85a2 2 0 014 0v1.43a6 6 0 01-.71 2.83l-.29.61a1 1 0 01-.88.53h-.2a1 1 0 01-.92-.53l-.33-.61A6 6 0 016 7.28V5.85zM14 19H2v-1.75a2 2 0 011.26-1.86L7 13.92v-1a3 3 0 001 .18 3 3 0 001-.18v1l3.72 1.42A2 2 0 0114 17.21V19zm7 0h-5v-1.65a4 4 0 00-.55-2l1.05-.4v-.88a2 2 0 00.4.05h.2a2 2 0 00.4-.05v.88l2.53 1a1.5 1.5 0 011 1.4V19z"/>
  </symbol>

  <symbol id="global-nav-icon--classic__my-network--active" height="24" width="24">
    <path d="M16 17.85V20a1 1 0 01-1 1H1a1 1 0 01-1-1v-2.15a4 4 0 012.55-3.73l2.95-1.2v-1.21l-.73-1.3A6 6 0 014 7.47V6a4 4 0 014.39-4A4.12 4.12 0 0112 6.21v1.26a6 6 0 01-.77 2.94l-.73 1.3v1.21l2.95 1.2A4 4 0 0116 17.85zm4.75-3.65L19 13.53v-1a6 6 0 001-3.31V9a3 3 0 00-6 0v.18a6 6 0 00.61 2.58A3.61 3.61 0 0016 13a3.62 3.62 0 012 3.24V21h4a1 1 0 001-1v-2.53a3.5 3.5 0 00-2.25-3.27z"/>
  </symbol>

  <symbol id="global-nav-icon--mercado__my-network" height="24" width="24">
    <path d="m12 16v6h-9v-6c0-1.7 1.3-3 3-3h3c1.7 0 3 1.3 3 3zm5.5-3c1.9 0 3.5-1.6 3.5-3.5s-1.6-3.5-3.5-3.5-3.5 1.6-3.5 3.5 1.6 3.5 3.5 3.5zm1 2h-2c-1.4 0-2.5 1.1-2.5 2.5v4.5h7v-4.5c0-1.4-1.1-2.5-2.5-2.5zm-11-13c-2.5 0-4.5 2-4.5 4.5s2 4.5 4.5 4.5 4.5-2 4.5-4.5-2-4.5-4.5-4.5z"/>
  </symbol>

  <symbol id="global-nav-icon--mercado__my-network--active" height="24" width="24">
    <path d="m16.5 11c-2.485 0-4.5-2.015-4.5-4.5s2.015-4.5 4.5-4.5 4.5 2.015 4.5 4.5-2.015 4.5-4.5 4.5z"/>
    <path d="m21 16c0-1.657-1.343-3-3-3h-3c-1.657 0-3 1.343-3 3v6h9z"/>
    <path d="m3 9.5c0 1.933 1.566 3.5 3.5 3.5s3.5-1.567 3.5-3.5-1.566-3.5-3.5-3.5-3.5 1.567-3.5 3.5z"/>
    <path d="m10 17.5c0-1.381-1.119-2.5-2.5-2.5h-2c-1.381 0-2.5 1.119-2.5 2.5v4.5h7z"/>
  </symbol>


  <symbol id="global-nav-icon--classic__discover" height="24" width="24">
    <path d="M12,2A10,10,0,1,0,22,12,10,10,0,0,0,12,2Zm0,18a8,8,0,1,1,8-8A8,8,0,0,1,12,20ZM7.05,17,14,14,17,7.05,10,10Zm5-6.2A1.25,1.25,0,1,1,10.75,12,1.25,1.25,0,0,1,12,10.75Z" fill-opacity="0.9"/>
  </symbol>

  <symbol id="global-nav-icon--classic__discover--active" height="24" width="24">
    <path d="M12,2A10,10,0,1,0,22,12,10,10,0,0,0,12,2Zm0,18a8,8,0,1,1,8-8A8,8,0,0,1,12,20ZM9.17,12,12,19A7,7,0,0,1,12,5ZM12,13.25A1.25,1.25,0,1,1,13.25,12,1.25,1.25,0,0,1,12,13.25ZM19,12a7,7,0,0,1-7,7l2.83-7L12,5A7,7,0,0,1,19,12Z" fill-opacity="0.9"/>
  </symbol>

  <symbol id="global-nav-icon--mercado__discover" height="24" width="24">
    <path d="M12,2A10,10,0,1,0,22,12,10,10,0,0,0,12,2Zm0,18a8,8,0,1,1,8-8A8,8,0,0,1,12,20ZM7.05,17,14,14,17,7.05,10,10Zm5-6.2A1.25,1.25,0,1,1,10.75,12,1.25,1.25,0,0,1,12,10.75Z" fill-opacity="0.9"/>
  </symbol>

  <symbol id="global-nav-icon--mercado__discover--active" height="24" width="24">
    <path d="M12,2A10,10,0,1,0,22,12,10,10,0,0,0,12,2Zm0,18a8,8,0,1,1,8-8A8,8,0,0,1,12,20ZM9.17,12,12,19A7,7,0,0,1,12,5ZM12,13.25A1.25,1.25,0,1,1,13.25,12,1.25,1.25,0,0,1,12,13.25ZM19,12a7,7,0,0,1-7,7l2.83-7L12,5A7,7,0,0,1,19,12Z" fill-opacity="0.9"/>
  </symbol>


  <symbol id="global-nav-icon--classic__jobs" height="24" width="24">
    <path d="M21 7h-4V6a3 3 0 00-3-3h-4a3 3 0 00-3 3v1H3a1 1 0 00-1 1v11a1 1 0 001 1h18a1 1 0 001-1V8a1 1 0 00-1-1zM9 6a1 1 0 011-1h4a1 1 0 011 1v1H9V6zm11 12H4v-5h16v5zm0-6H4V9h16v3z"/>
  </symbol>

  <symbol id="global-nav-icon--classic__jobs--active" height="24" width="24">
    <path d="M2 13h20v6a1 1 0 01-1 1H3a1 1 0 01-1-1v-6zm20-5v4H2V8a1 1 0 011-1h4V6a3 3 0 013-3h4a3 3 0 013 3v1h4a1 1 0 011 1zm-7-2a1 1 0 00-1-1h-4a1 1 0 00-1 1v1h6V6z"/>
  </symbol>

  <symbol id="global-nav-icon--mercado__jobs" height="24" width="24">
    <path d="m17 6v-1c0-1.7-1.3-3-3-3h-4c-1.7 0-3 1.3-3 3v1h-5v4c0 1.7 1.3 3 3 3h14c1.7 0 3-1.3 3-3v-4zm-8-1c0-.6.4-1 1-1h4c.6 0 1 .4 1 1v1h-6zm10 9c1.2 0 2.3-.5 3-1.4v4.4c0 1.7-1.3 3-3 3h-14c-1.7 0-3-1.3-3-3v-4.4c.7.9 1.8 1.4 3 1.4z"/>
  </symbol>

  <symbol id="global-nav-icon--mercado__jobs--active" height="24" width="24">
    <path d="m7 14c-1.6 0-3-1-3.7-2.4l-1.3-3.1v8.5c0 1.7 1.3 3 3 3h14c1.7 0 3-1.3 3-3v-3z"/>
    <path d="m22.8 10.2-1.8-4.2h-3.9v-1c0-1.7-1.3-3-3-3h-4c-1.7 0-3 1.3-3 3v1h-5.1l2.2 5.2c.5 1.1 1.6 1.8 2.8 1.8h14c1.4 0 2.4-1.5 1.8-2.8zm-7.7-4.2h-6v-1c0-.6.4-1 1-1h4c.6 0 1 .4 1 1z"/>
  </symbol>


  <symbol id="global-nav-icon--classic__messaging" height="24" width="24">
    <path d="M21 8H8a1 1 0 00-1 1v10a1 1 0 001 1h10l4 3V9a1 1 0 00-1-1zm-1 11.11L18.52 18H9v-8h11v9.11zM12 15h5v1h-5v-1zm-8-2h1v2H3a1 1 0 01-1-1V4a1 1 0 011-1h13a1 1 0 011 1v2h-2V5H4v8zm14 0h-7v-1h7v1z"/>
  </symbol>

  <symbol id="global-nav-icon--classic__messaging--active" height="24" width="24">
    <path d="M21 8H8a1 1 0 00-1 1v10a1 1 0 001 1h10l4 3V9a1 1 0 00-1-1zm-4 8h-5v-1h5zm1-3h-7v-1h7zm-1-9v2H6a1 1 0 00-1 1v8H3a1 1 0 01-1-1V4a1 1 0 011-1h13a1 1 0 011 1z"/>
  </symbol>

  <symbol id="global-nav-icon--mercado__messaging" height="24" width="24">
    <path d="M16 3H8C6.14348 3 4.36301 3.77847 3.05025 5.16416C1.7375 6.54984 1 8.42923 1 10.3889C1 12.3485 1.7375 14.2279 3.05025 15.6136C4.36301 16.9993 6.14348 17.7778 8 17.7778H12V22L20.16 16.3106C21.0512 15.639 21.7751 14.7495 22.2697 13.7183C22.7643 12.687 23.0148 11.5446 23 10.3889C23 8.42923 22.2625 6.54984 20.9497 5.16416C19.637 3.77847 17.8565 3 16 3ZM8 11.7083C7.75277 11.7083 7.5111 11.631 7.30554 11.486C7.09998 11.341 6.93976 11.1349 6.84515 10.8938C6.75054 10.6527 6.72579 10.3874 6.77402 10.1315C6.82225 9.87553 6.9413 9.64043 7.11612 9.4559C7.29093 9.27137 7.51366 9.14571 7.75614 9.0948C7.99861 9.04389 8.24995 9.07002 8.47835 9.16988C8.70676 9.26975 8.90199 9.43886 9.03934 9.65585C9.17669 9.87283 9.25 10.1279 9.25 10.3889C9.25 10.7388 9.1183 11.0744 8.88388 11.3219C8.64946 11.5693 8.33152 11.7083 8 11.7083ZM12 11.7083C11.7528 11.7083 11.5111 11.631 11.3055 11.486C11.1 11.341 10.9398 11.1349 10.8452 10.8938C10.7505 10.6527 10.7258 10.3874 10.774 10.1315C10.8222 9.87553 10.9413 9.64043 11.1161 9.4559C11.2909 9.27137 11.5137 9.14571 11.7561 9.0948C11.9986 9.04389 12.2499 9.07002 12.4784 9.16988C12.7068 9.26975 12.902 9.43886 13.0393 9.65585C13.1767 9.87283 13.25 10.1279 13.25 10.3889C13.25 10.7388 13.1183 11.0744 12.8839 11.3219C12.6495 11.5693 12.3315 11.7083 12 11.7083ZM16 11.7083C15.7528 11.7083 15.5111 11.631 15.3055 11.486C15.1 11.341 14.9398 11.1349 14.8452 10.8938C14.7505 10.6527 14.7258 10.3874 14.774 10.1315C14.8222 9.87553 14.9413 9.64043 15.1161 9.4559C15.2909 9.27137 15.5137 9.14571 15.7561 9.0948C15.9986 9.04389 16.2499 9.07002 16.4784 9.16988C16.7068 9.26975 16.902 9.43886 17.0393 9.65585C17.1767 9.87283 17.25 10.1279 17.25 10.3889C17.25 10.7388 17.1183 11.0744 16.8839 11.3219C16.6495 11.5693 16.3315 11.7083 16 11.7083Z"/>
  </symbol>

  <symbol id="global-nav-icon--mercado__messaging--active" height="24" width="24">
    <path clip-rule="evenodd" d="m11.99 2.00003h3.996c.7888-.00263 1.5704.15062 2.3.45097.7295.30035 1.3926.74189 1.9513 1.29931.5587.55741 1.0021 1.21973 1.3045 1.94899.3025.72926.4582 1.51112.4582 2.30073v.48c-.0007.99073-.2465 1.96587-.7154 2.83837-.469.8724-1.1464 1.6151-1.9719 2.1616l-.3297.22c-.0773-1.804-.848-3.5083-2.1512-4.75689-1.3032-1.24856-3.0379-1.94474-4.8418-1.94308h-3.99599c-.65929.00095-1.31514.09522-1.94805.28.17568-1.45488.87721-2.79509 1.97223-3.76778s2.50781-1.51059 3.97181-1.51222zm-3.996 6h3.996c1.5897 0 3.1143.63214 4.2384 1.75736 1.1241 1.12521 1.7556 2.65131 1.7556 4.24261v.48c-.0007.9908-.2465 1.9659-.7154 2.8383-.4689.8725-1.1464 1.6152-1.9719 2.1617l-5.30469 3.52v-3h-1.99801c-1.5897 0-3.1143-.6321-4.2384-1.7573-1.12409-1.1252-1.7556-2.6514-1.7556-4.2427s.63151-3.1174 1.7556-4.24261c1.1241-1.12522 2.6487-1.75736 4.2384-1.75736zm-1.55401 6.83147c.16428.1099.35743.1685.55501.1685.26496 0 .51905-.1053.7064-.2929.18735-.1875.2926-.4419.2926-.7071 0-.1978-.05859-.3911-.16836-.5555-.10977-.1645-.26579-.2927-.44833-.3683-.18255-.0757-.38341-.0955-.5772-.057-.19379.0386-.37179.1339-.51151.2737-.13971.1399-.23485.3181-.2734.512-.03855.194-.01876.3951.05685.5778s.20365.3389.36794.4488zm2.997 0c.16429.1099.35743.1685.55502.1685.26499 0 .51909-.1053.70639-.2929.1874-.1875.2926-.4419.2926-.7071 0-.1978-.0586-.3911-.1684-.5555-.1097-.1645-.2657-.2927-.4483-.3683-.1825-.0757-.3834-.0955-.57719-.057-.19379.0386-.37179.1339-.5115.2737-.13972.1399-.23486.3181-.27341.512-.03855.194-.01876.3951.05685.5778s.20366.3389.36794.4488zm2.99701 0c.1643.1099.3574.1685.555.1685.265 0 .5191-.1053.7064-.2929.1874-.1875.2926-.4419.2926-.7071 0-.1978-.0586-.3911-.1684-.5555-.1097-.1645-.2657-.2927-.4483-.3683-.1825-.0757-.3834-.0955-.5772-.057-.1938.0386-.3718.1339-.5115.2737-.1397.1399-.2349.3181-.2734.512-.0385.194-.0188.3951.0569.5778.0756.1827.2036.3389.3679.4488z"/>
  </symbol>

  <symbol id="global-nav-icon--mercado__messaging-airplane" height="24" width="24">
    <path d="M21 3L0 10l7.66 4.26L16 8l-6.26 8.34L14 24l7-21z"/>
  </symbol>

  <symbol id="global-nav-icon--mercado__messaging-airplane--active" height="24" width="24">
    <path d="M9 15.71L2.70999 22L2 21.29L8.29001 15L9 15.71ZM5.29001 14L2 17.29L2.70999 18L6 14.71L5.29001 14ZM6 21.29L6.70999 22L10 18.71L9.29001 18L6 21.29ZM1 10L9 13L16 8L11 15L14 23L22 2L1 10Z"/>
  </symbol>


  <symbol id="global-nav-icon--classic__notifications" height="24" width="24">
    <path d="M20.94 19L19 14.49s-.41-3.06-.8-6.06A6.26 6.26 0 0012 3a6.26 6.26 0 00-6.21 5.44L5 14.49 3.06 19a.71.71 0 00-.06.28.75.75 0 00.75.76H10a2 2 0 104 0h6.27a.74.74 0 00.67-1.04zM12 4.75a4.39 4.39 0 014.35 3.81c.28 2.1.56 4.35.7 5.44H7l.65-5.44A4.39 4.39 0 0112 4.75zM5.52 18l1.3-3h10.36l1.3 3h-13z"/>
  </symbol>

  <symbol id="global-nav-icon--classic__notifications--active" height="24" width="24">
    <path d="M18.94 14H5.06l.73-5.56A6.26 6.26 0 0112 3a6.26 6.26 0 016.21 5.44zm2 5l-1.71-4H4.78l-1.72 4a.71.71 0 00-.06.28.75.75 0 00.75.76H10a2 2 0 104 0h6.27a.74.74 0 00.67-1.04z"/>
  </symbol>

  <symbol id="global-nav-icon--mercado__notifications" height="24" width="24">
    <path d="M13.7 19C13.9 19.3 14 19.6 14 20C14 21.1 13.1 22 12 22C10.9 22 10 21.1 10 20C10 19.6 10.1 19.3 10.3 19H2V18C2 17 2.4 16.1 3.2 15.2L4.2 14H19.9L20.9 15.2C21.7 16.2 22.1 17.1 22.1 18V19H13.7ZM18.2 7.4C17.8 4.3 15.1 2 12 2C8.9 2 6.2 4.3 5.8 7.4L5 13H19L18.2 7.4Z"/>
  </symbol>

  <symbol id="global-nav-icon--mercado__notifications--active" height="24" width="24">
    <path d="M21.4 17L20.7 15.6L5.2 12.2L4 13.1C3 13.9 2.4 14.7 2.2 15.6L2 16.6L21.7 21L21.9 20C22 19.7 22 19.5 22 19.2C22 18.5 21.8 17.8 21.4 17Z"/>
    <path d="M20.5 8.8C20.8 5.7 18.7 2.8 15.6 2.1C15.1 2 14.6 2 14.2 2C11.6 2 9.19999 3.6 8.29999 6.1L6.29999 11.4L20.1 14.5L20.5 8.8Z"/>
    <path d="M11 20C11 21.1 11.9 22 13 22C14.1 22 15 21.1 15 20C15 19.8 15 19.7 14.9 19.5L11.4 18.7C11.2 19.1 11 19.5 11 20Z"/>
  </symbol>

  <symbol id="global-nav-icon--classic__groups" height="24" width="24">
    <circle cx="12" cy="7" r="3.33"/>
    <path d="M21.54 15a10 10 0 00.46-2.77 3 3 0 11-1.28-5.14 10 10 0 00-17.42 0A3 3 0 112 12.23 9.85 9.85 0 002.48 15H7v5.75h.12a10 10 0 001.88.8V12h6v9.54a9.93 9.93 0 002-.89V15h4.54z" opacity=".25"/>
    <path d="M4 7a3 3 0 00-3 3 3 3 0 103-3zM20.71 7.09A3 3 0 1023 10a3 3 0 00-2.29-2.91z" opacity=".7"/>
    <path d="M9 12v9.52a9.81 9.81 0 006 0V12H9z"/>
    <path d="M2.48 15a10.09 10.09 0 00.92 2.09L2 22l5-1.25V15H2.48zM21.54 15H17v5.65A10 10 0 0021.54 15z" opacity=".7"/>
  </symbol>


  <symbol id="global-nav-icon--classic__work" height="24" width="24">
    <path d="M10 10h4v4h-4v-4zm0 11h4v-4h-4v4zm-7-7h4v-4H3v4zm0 7h4v-4H3v4zM3 7h4V3H3v4zm14 7h4v-4h-4v4zm0-11v4h4V3h-4zm-7 4h4V3h-4v4zm7 14h4v-4h-4v4z"/>
  </symbol>

  <symbol id="global-nav-icon--mercado__work" height="24" width="24">
    <path clip-rule="evenodd" d="m17 21h4v-4h-4zm-7-14h4v-4h-4zm7 0h4v-4h-4zm0 7h4v-4h-4zm-14-7h4v-4h-4zm0 14h4v-4h-4zm0-7h4v-4h-4zm7 7h4v-4h-4zm0-7h4v-4h-4z"/>
  </symbol>


  <symbol id="global-nav-icon--classic__learning" height="24" width="24">
    <path d="M22 5v14H2V5h20m1-2H1a1 1 0 00-1 1v16a1 1 0 001 1h22a1 1 0 001-1V4a1 1 0 00-1-1z"/>
    <path d="M2 5v14h10V5H2zm8 12H4v-2h6v2zm0-4H4v-2h6v2zm0-4H4V7h6v2z" opacity=".25"/>
    <path opacity=".55" d="M14 7h6v2h-6zM14 11h6v2h-6zM14 15h6v2h-6z"/>
    <path d="M10 7.53v8.93a.28.28 0 00.44.23l6.43-4.44a.33.33 0 000-.52L10.44 7.3a.28.28 0 00-.44.23z"/>
  </symbol>


  <symbol id="global-nav-icon--classic__post-a-job" height="24" width="24">
    <circle cx="12" cy="4" r="2" opacity=".7"/>
    <path d="M21 10H3a1 1 0 00-1 1v10a1 1 0 001 1h18a1 1 0 001-1V11a1 1 0 00-1-1zm-5 9H8v-2h8v2zm2-4H6v-2h12v2z"/>
    <g opacity=".55">
      <path d="M9.57 5.75l-2.41 4.83 1.68.84 2.28-4.57a3 3 0 01-1.55-1.1zM14.43 5.75a3 3 0 01-1.55 1.1l2.28 4.57 1.68-.84z" opacity=".55"/>
    </g>
  </symbol>

  <symbol id="global-nav-icon--classic__sales-navigator" height="24" width="24">
    <path d="M12 1.88A10.13 10.13 0 111.88 12 10.14 10.14 0 0112 1.88M12 0a12 12 0 1012 12A12 12 0 0012 0z"/>
    <path d="M12 9.88A2.13 2.13 0 119.88 12 2.13 2.13 0 0112 9.88M12 9a3 3 0 103 3 3 3 0 00-3-3z"/>
    <path d="M12 15a2.94 2.94 0 01-3-3.46L6.31 17a.56.56 0 00-.05.25.46.46 0 00.44.47.6.6 0 00.3-.03L12.46 15a3 3 0 01-.46 0z" opacity=".7"/>
    <path d="M17.27 6.25a.55.55 0 00-.25.06L11.54 9A2.94 2.94 0 0115 12.46L17.69 7a.53.53 0 00.05-.24.48.48 0 00-.47-.51z"/>
  </symbol>

  <symbol id="global-nav-icon--classic__recruiter" height="24" width="24">
    <path d="M11 13v3.78a6 6 0 004 0V13h-4z"/>
    <circle cx="13" cy="9" r="2.33"/>
    <path d="M13 2a9 9 0 00-7.61 13.78L2.22 19a.75.75 0 000 1.06L4 21.78a.75.75 0 001.06 0l3.17-3.17A9 9 0 1013 2zm0 15.13A6.13 6.13 0 1119.13 11 6.12 6.12 0 0113 17.13z" opacity=".7"/>
  </symbol>

  <symbol id="global-nav-icon--classic__elevate" height="24" width="24">
    <circle cx="12" cy="11" r="3"/>
    <path d="M9 16h6v5a1 1 0 01-1 1h-4a1 1 0 01-1-1v-5z"/>
    <path d="M7.77 15.23A.94.94 0 007.85 14a5.12 5.12 0 010-6 .94.94 0 00-.08-1.22.94.94 0 00-1.41.09 7 7 0 000 8.29.94.94 0 001.41.07z" opacity=".7"/>
    <path d="M2.88 11A9.08 9.08 0 015 5.17a.93.93 0 00-.07-1.25A1 1 0 003.52 4a11 11 0 000 14 1 1 0 001.4.08.93.93 0 00.08-1.25A9.08 9.08 0 012.88 11z" opacity=".25"/>
    <path d="M17.13 11a5.1 5.1 0 01-1 3 .94.94 0 00.08 1.22.94.94 0 001.41-.09 7 7 0 000-8.29.94.94 0 00-1.41-.09.94.94 0 00-.06 1.25 5.1 5.1 0 01.98 3z" opacity=".7"/>
    <path d="M23 11a11 11 0 00-2.52-7 1 1 0 00-1.4-.08.93.93 0 00-.08 1.25 9.11 9.11 0 010 11.67.93.93 0 00.07 1.25 1 1 0 001.4-.08A11 11 0 0023 11z" opacity=".25"/>
  </symbol>

  <symbol id="global-nav-icon--classic__ads" height="24" width="24">
    <path d="M12 17.13a5.13 5.13 0 010-10.25V4a8 8 0 108 8h-2.87A5.13 5.13 0 0112 17.13z" opacity=".7"/>
    <path d="M23.31 6.34l-4.95-.71-.7-4.94-3.54 3.53.35 2.48-3.89 3.89a2 2 0 002.83 2.83l3.89-3.89 2.48.35z"/>
  </symbol>

  <symbol id="global-nav-icon--classic__cac" height="24" width="24">
    <path d="M16.56 8.11l1.31-2.27a1 1 0 00-.37-1.37l-1.73-1a1 1 0 00-1.36.37L13.1 6.1a6 6 0 013.46 2.01zM10.91 6.1L9.59 3.84a1 1 0 00-.9-.5.94.94 0 00-.47.13l-1.73 1a1 1 0 00-.37 1.37l1.32 2.27a6 6 0 013.47-2.01z" opacity=".45"/>
    <path d="M12 6a6 6 0 106 6 6 6 0 00-6-6zm0 9.13A3.13 3.13 0 1115.13 12 3.13 3.13 0 0112 15.13z" opacity=".7"/>
    <path d="M9.62 10H4a1 1 0 00-1 1v2a1 1 0 001 1h5.62a3.07 3.07 0 010-4zM20 10h-5.62a3.07 3.07 0 010 4H20a1 1 0 001-1v-2a1 1 0 00-1-1z"/>
    <path d="M17.87 18.16l-1.31-2.27a6 6 0 01-3.47 2l1.31 2.27a1 1 0 001.37.37l1.73-1a1 1 0 00.37-1.36zM7.44 15.89l-1.31 2.27a1 1 0 00.37 1.37l1.73 1a1 1 0 001.36-.37l1.31-2.26a6 6 0 01-3.46-2.01z" opacity=".45"/>
  </symbol>

  <symbol id="global-nav-icon--classic__services-marketplace" height="24" width="24">
    <circle cx="12" cy="7" r="2.34"/>
    <path d="M11 16.76l-2.12 2.12-4.56-4.56a.67.67 0 010-.95l1.17-1.17a.67.67 0 01.95 0z" opacity=".35"/>
    <path d="M13.12 18.88l-1.41 1.41a1 1 0 01-1.41 0l-1.42-1.41L11 16.76z" opacity=".55"/>
    <path d="M18.68 9.07L11 16.76l2.12 2.12 7.68-7.68a.7.7 0 00.2-.51.64.64 0 00-.2-.44l-1.17-1.18a.67.67 0 00-.95 0z" opacity=".7"/>
    <path d="M11 16.76l3-3V12h-4v3.76l1 1z"/>
  </symbol>

  <symbol id="global-nav-icon--classic__salary" height="24" width="24">
    <path d="M21 21H3a.94.94 0 01-1-1v-1h20v1a.94.94 0 01-.88 1H21z" opacity=".7"/>
    <path d="M21 3H3a.94.94 0 00-1 1v12a.94.94 0 00.88 1H21a.94.94 0 001-1V4a.94.94 0 00-.88-1H21zm-1 9a5 5 0 00-3 3H7a5 5 0 00-3-3V8a5 5 0 003-3h10a5 5 0 003 3v4z"/>
    <path d="M12 6a4 4 0 00-2.83 6.83l5.66-5.66A4 4 0 0012 6z"/>
    <path d="M16 10a4 4 0 00-1.17-2.83l-5.66 5.66A4 4 0 0016 10z" opacity=".45"/>
  </symbol>


  <symbol id="global-nav-icon--classic__overflow" width="24" height="24">
    <path d="M14 12a2 2 0 11-2-2 2 2 0 012 2zM4 10a2 2 0 102 2 2 2 0 00-2-2zm16 0a2 2 0 102 2 2 2 0 00-2-2z"/>
  </symbol>


  <symbol id="global-nav-icon--classic__down-arrow" width="16" height="16" data-supported-dps="16x16">
    <path d="M8.8 10.66L14 5.12a.07.07 0 00-.07-.12H2.07a.07.07 0 00-.07.12l5.2 5.54a1.1 1.1 0 001.6 0z"/>
  </symbol>
</svg>