<svg xmlns:xlink="http://www.w3.org/1999/xlink" xmlns="http://www.w3.org/2000/svg" data-supported-dps="16x16" fill="currentColor" class="mercado-match" focusable="false" viewBox="1 1 14 14.01">
  <path d="M15 5a4 4 0 01-1.17 2.83l-3.46 3.46A2.5 2.5 0 018.6 12a2.46 2.46 0 01-2.5-2.48 2.55 2.55 0 01.75-1.79L9.61 5 11 6.39 8.25 9.17a.49.49 0 00-.15.35.5.5 0 00.9.36l3.46-3.47a2 2 0 10-2.87-2.82l-6 6A2 2 0 005 13a2 2 0 001.42-.59l.18-.17L8 13.66l-.17.17a4 4 0 01-5.66-5.66l6-6A4 4 0 0115 5z" fill-opacity="0.6" fill="#000000"/>
</svg>